<svg width="512" height="512" viewBox="0 0 512 512" fill="none" xmlns="http://www.w3.org/2000/svg">
<path d="M345.588 38.4238V288.424C345.588 306.002 343.065 321.057 338.02 333.59C332.974 346.122 326.138 356.376 317.512 364.352C309.048 372.327 299.201 378.186 287.971 381.93C276.74 385.673 264.859 387.545 252.326 387.545C240.282 387.545 228.726 385.592 217.658 381.686C206.59 377.942 196.743 372.327 188.117 364.84C179.654 357.353 172.818 348.076 167.609 337.008C162.564 325.777 160.041 312.838 160.041 298.189V273.287H196.174V294.039C196.174 304.618 197.883 313.733 201.301 321.383C204.719 329.033 209.113 335.38 214.484 340.426C220.018 345.471 226.122 349.215 232.795 351.656C239.631 354.098 246.467 355.318 253.303 355.318C258.674 355.318 264.615 354.342 271.125 352.389C277.635 350.273 283.739 346.855 289.436 342.135C295.132 337.252 299.852 330.823 303.596 322.848C307.502 314.872 309.455 304.863 309.455 292.818V38.4238H345.588Z" fill="black"/>
<path d="M108.982 460L94.8817 422.44H94.6417C94.7217 423.24 94.7817 424.26 94.8217 425.5C94.9017 426.74 94.9617 428.1 95.0017 429.58C95.0417 431.02 95.0617 432.5 95.0617 434.02V460H90.0817V417.16H98.0617L111.262 452.26H111.502L124.942 417.16H132.862V460H127.522V433.66C127.522 432.26 127.542 430.88 127.582 429.52C127.622 428.12 127.682 426.82 127.762 425.62C127.842 424.38 127.902 423.34 127.942 422.5H127.702L113.422 460H108.982ZM171.395 460L166.235 446.74H149.255L144.155 460H138.695L155.435 416.98H160.295L176.975 460H171.395ZM159.815 428.98C159.695 428.66 159.495 428.08 159.215 427.24C158.935 426.4 158.655 425.54 158.375 424.66C158.135 423.74 157.935 423.04 157.775 422.56C157.575 423.36 157.355 424.18 157.115 425.02C156.915 425.82 156.695 426.56 156.455 427.24C156.255 427.92 156.075 428.5 155.915 428.98L151.055 441.94H164.615L159.815 428.98ZM194.656 417.16C198.216 417.16 201.136 417.62 203.416 418.54C205.736 419.42 207.456 420.76 208.576 422.56C209.696 424.36 210.256 426.62 210.256 429.34C210.256 431.62 209.836 433.52 208.996 435.04C208.156 436.56 207.076 437.78 205.756 438.7C204.476 439.58 203.116 440.28 201.676 440.8L213.436 460H207.136L196.756 442.3H188.236V460H182.836V417.16H194.656ZM194.356 421.84H188.236V437.74H194.656C196.976 437.74 198.876 437.44 200.356 436.84C201.836 436.2 202.916 435.28 203.596 434.08C204.316 432.88 204.676 431.38 204.676 429.58C204.676 427.7 204.296 426.2 203.536 425.08C202.816 423.96 201.696 423.14 200.176 422.62C198.656 422.1 196.716 421.84 194.356 421.84ZM251.48 460H245.12L229.94 439.54L225.56 443.38V460H220.16V417.16H225.56V438.28C226.76 436.92 227.98 435.56 229.22 434.2C230.46 432.84 231.7 431.48 232.94 430.12L244.52 417.16H250.82L233.84 435.82L251.48 460ZM281.248 460H257.308V417.16H281.248V421.9H262.708V435.28H280.168V439.96H262.708V455.26H281.248V460ZM304.208 460H298.808V421.9H285.428V417.16H317.528V421.9H304.208V460ZM336.048 460H320.568V456.88L325.608 455.74V421.48L320.568 420.28V417.16H336.048V420.28L331.008 421.48V455.74L336.048 456.88V460ZM378.28 460H371.98L349.06 424.42H348.82C348.86 425.14 348.9 425.94 348.94 426.82C349.02 427.7 349.08 428.66 349.12 429.7C349.16 430.7 349.2 431.74 349.24 432.82C349.28 433.9 349.3 434.98 349.3 436.06V460H344.32V417.16H350.56L373.42 452.62H373.66C373.62 452.14 373.58 451.48 373.54 450.64C373.5 449.76 373.46 448.8 373.42 447.76C373.38 446.68 373.34 445.58 373.3 444.46C373.26 443.34 373.24 442.3 373.24 441.34V417.16H378.28V460ZM408.506 437.38H423.326V458.38C421.006 459.14 418.666 459.7 416.306 460.06C413.946 460.42 411.266 460.6 408.266 460.6C403.826 460.6 400.086 459.72 397.046 457.96C394.006 456.16 391.686 453.62 390.086 450.34C388.526 447.02 387.746 443.1 387.746 438.58C387.746 434.1 388.626 430.22 390.386 426.94C392.146 423.66 394.666 421.12 397.946 419.32C401.266 417.48 405.266 416.56 409.946 416.56C412.346 416.56 414.606 416.78 416.726 417.22C418.886 417.66 420.886 418.28 422.726 419.08L420.686 423.76C419.166 423.08 417.446 422.5 415.526 422.02C413.646 421.54 411.686 421.3 409.646 421.3C406.246 421.3 403.326 422 400.886 423.4C398.446 424.8 396.586 426.8 395.306 429.4C394.026 431.96 393.386 435.02 393.386 438.58C393.386 441.98 393.926 445 395.006 447.64C396.126 450.24 397.866 452.28 400.226 453.76C402.586 455.2 405.686 455.92 409.526 455.92C410.806 455.92 411.926 455.88 412.886 455.8C413.886 455.68 414.786 455.54 415.586 455.38C416.426 455.22 417.206 455.06 417.926 454.9V442.18H408.506V437.38Z" fill="black"/>
</svg>
